<svg width="252" height="88" viewBox="0 0 252 88" fill="none" xmlns="http://www.w3.org/2000/svg">
<path d="M0 60C0 26.8629 26.8629 0 60 0H152V56C152 73.6731 137.673 88 120 88H0V60Z" fill="#379777"/>
<path d="M19.264 62V29.984H26.464L42.208 50.864L39.568 56.432V29.984H47.536V62H41.2L25.36 41.648L27.184 37.712V62H19.264ZM65.5653 62.72C63.2613 62.72 61.2293 62.384 59.4693 61.712C57.7093 61.008 56.3173 59.92 55.2933 58.448C54.3013 56.944 53.8053 55.008 53.8053 52.64V37.664H61.7253V52.064C61.7253 53.408 62.0293 54.416 62.6373 55.088C63.2773 55.76 64.2693 56.096 65.6133 56.096C66.9573 56.096 67.9333 55.76 68.5413 55.088C69.1493 54.416 69.4533 53.408 69.4533 52.064V37.664H76.8453V52.64C76.8453 56.16 75.8213 58.72 73.7733 60.32C71.7573 61.92 69.0213 62.72 65.5653 62.72ZM93.3786 63.056C90.3386 63.056 88.0986 62.368 86.6586 60.992C85.2186 59.616 84.4986 57.664 84.4986 55.136V43.616H81.0906V37.664H84.4986V30.992H92.8506V37.664H98.0346V43.616H92.8506V54.272C92.8506 54.976 93.0266 55.504 93.3786 55.856C93.7306 56.208 94.2746 56.384 95.0106 56.384C95.4586 56.384 95.9706 56.288 96.5466 56.096C97.1226 55.872 97.6186 55.6 98.0346 55.28V62C97.2666 62.416 96.4826 62.688 95.6826 62.816C94.8826 62.976 94.1146 63.056 93.3786 63.056ZM103.212 62V40.352C103.692 39.904 104.508 39.424 105.66 38.912C106.812 38.368 108.124 37.904 109.596 37.52C111.1 37.104 112.572 36.896 114.012 36.896C115.772 36.896 117.148 37.024 118.14 37.28C119.132 37.536 119.884 37.856 120.396 38.24V43.952C119.884 43.824 119.212 43.712 118.38 43.616C117.548 43.52 116.668 43.456 115.74 43.424C114.812 43.392 113.932 43.392 113.1 43.424C112.3 43.456 111.644 43.504 111.132 43.568V62H103.212ZM124.401 62V38.048H132.369L132.417 62H124.401ZM124.305 34.544V28.64H132.465V34.544H124.305Z" fill="white"/>
<path d="M163.264 62V29.984H177.472C179.712 29.984 181.696 30.272 183.424 30.848C185.184 31.392 186.576 32.32 187.6 33.632C188.656 34.912 189.184 36.672 189.184 38.912C189.184 40.352 188.8 41.568 188.032 42.56C187.264 43.52 186.336 44.288 185.248 44.864C184.192 45.408 183.2 45.84 182.272 46.16L181.264 44.192C183.216 44.256 184.896 44.624 186.304 45.296C187.712 45.936 188.8 46.848 189.568 48.032C190.368 49.184 190.768 50.576 190.768 52.208C190.768 54.448 190.208 56.304 189.088 57.776C188 59.216 186.544 60.288 184.72 60.992C182.928 61.664 180.96 62 178.816 62H163.264ZM172 55.376H178.096C178.768 55.376 179.376 55.264 179.92 55.04C180.496 54.816 180.944 54.448 181.264 53.936C181.616 53.392 181.792 52.704 181.792 51.872C181.792 51.264 181.68 50.752 181.456 50.336C181.264 49.888 180.992 49.536 180.64 49.28C180.32 49.024 179.92 48.832 179.44 48.704C178.96 48.576 178.464 48.512 177.952 48.512H172V55.376ZM171.952 42.32H177.808C178.256 42.32 178.656 42.224 179.008 42.032C179.392 41.808 179.712 41.504 179.968 41.12C180.224 40.704 180.352 40.208 180.352 39.632C180.352 38.512 180.048 37.728 179.44 37.28C178.832 36.832 178.128 36.608 177.328 36.608H171.952V42.32ZM207.409 62.72C205.105 62.72 203.073 62.384 201.313 61.712C199.553 61.008 198.161 59.92 197.137 58.448C196.145 56.944 195.649 55.008 195.649 52.64V37.664H203.569V52.064C203.569 53.408 203.873 54.416 204.481 55.088C205.121 55.76 206.113 56.096 207.457 56.096C208.801 56.096 209.777 55.76 210.385 55.088C210.993 54.416 211.297 53.408 211.297 52.064V37.664H218.689V52.64C218.689 56.16 217.665 58.72 215.617 60.32C213.601 61.92 210.865 62.72 207.409 62.72ZM236.71 62.72C234.662 62.72 232.822 62.496 231.19 62.048C229.558 61.632 228.15 60.928 226.966 59.936C225.814 58.944 224.918 57.616 224.278 55.952C223.67 54.256 223.366 52.144 223.366 49.616C223.366 45.648 224.342 42.512 226.294 40.208C228.246 37.904 231.19 36.752 235.126 36.752C235.574 36.752 236.198 36.8 236.998 36.896C237.798 36.96 238.646 37.152 239.542 37.472C240.438 37.792 241.254 38.368 241.99 39.2L240.502 41.696V27.68H248.326V55.232C248.326 56.448 248.006 57.536 247.366 58.496C246.758 59.424 245.91 60.208 244.822 60.848C243.734 61.456 242.486 61.92 241.078 62.24C239.702 62.56 238.246 62.72 236.71 62.72ZM237.046 56.144C238.102 56.144 238.934 56 239.542 55.712C240.182 55.424 240.502 54.976 240.502 54.368V44C239.99 43.712 239.446 43.504 238.87 43.376C238.326 43.216 237.798 43.136 237.286 43.136C236.006 43.136 234.918 43.328 234.022 43.712C233.126 44.096 232.454 44.784 232.006 45.776C231.558 46.736 231.334 48.112 231.334 49.904C231.334 51.248 231.526 52.384 231.91 53.312C232.294 54.24 232.902 54.944 233.734 55.424C234.598 55.904 235.702 56.144 237.046 56.144Z" fill="#1E1E1E"/>
</svg>
